<?xml version="1.0" encoding="utf-8"?>
<!-- Generator: Adobe Illustrator 16.0.0, SVG Export Plug-In . SVG Version: 6.00 Build 0)  -->
<!DOCTYPE svg PUBLIC "-//W3C//DTD SVG 1.1//EN" "http://www.w3.org/Graphics/SVG/1.1/DTD/svg11.dtd">
<svg version="1.1" id="Layer_1" xmlns="http://www.w3.org/2000/svg" xmlns:xlink="http://www.w3.org/1999/xlink" x="0px" y="0px"
	 width="413px" height="136px" viewBox="0 0 413 136" enable-background="new 0 0 413 136" xml:space="preserve">
<g>
	<defs>
		<rect id="SVGID_1_" x="-93.636" y="-236.526" width="841.884" height="595.274"/>
	</defs>
	<clipPath id="SVGID_2_">
		<use xlink:href="#SVGID_1_"  overflow="visible"/>
	</clipPath>
	<g clip-path="url(#SVGID_2_)">
		<g>
			<defs>
				<rect id="SVGID_3_" x="56.704" y="46.814" width="20.357" height="25.996"/>
			</defs>
			<clipPath id="SVGID_4_">
				<use xlink:href="#SVGID_3_"  overflow="visible"/>
			</clipPath>
		</g>
	</g>
</g>
<g>
	<defs>
		<rect id="SVGID_5_" x="-93.636" y="-236.526" width="841.884" height="595.274"/>
	</defs>
	<clipPath id="SVGID_6_">
		<use xlink:href="#SVGID_5_"  overflow="visible"/>
	</clipPath>
	<g clip-path="url(#SVGID_6_)">
		<g>
			<defs>
				<rect id="SVGID_7_" x="62.41" y="92.592" width="26.155" height="23.527"/>
			</defs>
			<clipPath id="SVGID_8_">
				<use xlink:href="#SVGID_7_"  overflow="visible"/>
			</clipPath>
		</g>
	</g>
</g>
<g>
	<defs>
		<path id="SVGID_9_" d="M65.578,72.877c0.847-15.898,23.699-28.809,41.619-29.404c32.981-1.1,24.966,19.941,15.657,25.092
			c-8.907,4.926-19.504,6.445-30.276,6.445C83.397,75.01,74.088,73.908,65.578,72.877 M61.53,55.139
			c-3.322,6.566-4.477,11.467-4.32,16.785c-14.721-1.473-24.525-0.689-34.346,11.58c-7.432,12.436,24.538,8.645,38.29,7.318
			c0.358-0.035,0.71-0.068,1.043-0.1c2.772-0.258,5.649-0.525,8.563-0.801c12.332-1.17,25.613-2.543,37.354-4.449
			c-10.91,2.754-24.391,4.26-36.741,5.508c-3.374,0.342-6.668,0.666-9.796,0.986c-0.015,0.002-0.031,0.002-0.047,0.006
			c-14.922,1.539-24.618,2.463-39.541,4c13.255-0.787,26.73-1.613,40.115-2.688c3.394-0.273,6.781-0.562,10.16-0.871
			c3.518-0.322,7.027-0.656,10.517-1.023c25.116-2.65,51.749-7.252,58.776-31.836c2.8-9.799-1.203-24.303-11.176-28.4
			c-6.021-2.475-12.194-3.541-18.264-3.543C89.197,27.61,67.75,42.846,61.53,55.139"/>
	</defs>
	<clipPath id="SVGID_10_">
		<use xlink:href="#SVGID_9_"  overflow="visible"/>
	</clipPath>
	
		<linearGradient id="SVGID_11_" gradientUnits="userSpaceOnUse" x1="-190.1553" y1="331.4932" x2="-189.1556" y2="331.4932" gradientTransform="matrix(96 -30.0005 -30.0005 -96 28251.7969 26189.2109)">
		<stop  offset="0" style="stop-color:#EF8622"/>
		<stop  offset="0.0223" style="stop-color:#EF8622"/>
		<stop  offset="0.0468" style="stop-color:#EF8622"/>
		<stop  offset="0.4084" style="stop-color:#F29D22"/>
		<stop  offset="0.7838" style="stop-color:#F6B221"/>
		<stop  offset="1" style="stop-color:#F8BA20"/>
	</linearGradient>
	<polygon clip-path="url(#SVGID_10_)" fill="url(#SVGID_11_)" points="-4.031,33.693 132.886,-9.095 163.819,89.891 26.903,132.678 
			"/>
</g>
<g>
	<defs>
		<rect id="SVGID_12_" x="-93.636" y="-236.526" width="841.884" height="595.274"/>
	</defs>
	<clipPath id="SVGID_13_">
		<use xlink:href="#SVGID_12_"  overflow="visible"/>
	</clipPath>
	<path clip-path="url(#SVGID_13_)" fill="#FFFFFF" d="M27.895,80.895c10.62-11.32,22.219-7.297,21.594-6.609
		c-5.111,4.502-8.898,8.09-9.812,8.812C38.732,83.844,26.239,82.66,27.895,80.895"/>
	<path clip-path="url(#SVGID_13_)" fill="#FFFFFF" d="M96.167,81.426c-22.937,2.467-47.285,2.311-48.401,2.576
		c-1.541,0-3.201-0.236-3.318-1.305c-0.247-0.74,3.087-4.705,6.464-7.111c2.55-1.816,5.387-1.422,5.386-1.422
		c3.671,0.279,10.786,0.83,10.786,0.83c0.635,0.701,0.817,2.16,0.829,3.91c0.109-1.332,0.277-2.645,0.839-3.812
		c5.249,0.387,10.463,0.762,15.646,1.135c0.401,0.619,0.525,1.709,0.533,2.992c0.084-1.016,0.207-2.012,0.596-2.912
		c17.295,1.191,22.869-0.619,22.869-0.619C107.623,76.057,109.704,79.969,96.167,81.426"/>
</g>
<g>
	<defs>
		<path id="SVGID_14_" d="M130.112,87.592c-7.629,5.762-16.635,11.559-25.664,14.797c-14.766,5.301-25.402,0.404-32.184-9.975
			c-1.737,0.158-3.483,0.299-5.225,0.447c7.071,11.174,16.258,18.576,26.756,18.273c15.455-0.447,31.83-9.465,45.825-29.912
			c-0.077-0.355-0.292-0.512-0.606-0.512C137.059,80.711,131.223,86.754,130.112,87.592"/>
	</defs>
	<clipPath id="SVGID_15_">
		<use xlink:href="#SVGID_14_"  overflow="visible"/>
	</clipPath>
	
		<linearGradient id="SVGID_16_" gradientUnits="userSpaceOnUse" x1="-190.1924" y1="331.7764" x2="-189.1932" y2="331.7764" gradientTransform="matrix(120.6704 0 0 -120.6704 22972.4062 40131.7812)">
		<stop  offset="0" style="stop-color:#EF8622"/>
		<stop  offset="0.0223" style="stop-color:#EF8622"/>
		<stop  offset="0.0468" style="stop-color:#EF8622"/>
		<stop  offset="1" style="stop-color:#F8BA20"/>
	</linearGradient>
	<rect x="67.04" y="80.711" clip-path="url(#SVGID_15_)" fill="url(#SVGID_16_)" width="72.581" height="30.727"/>
</g>
<g>
	<defs>
		<path id="SVGID_17_" d="M94.1,113.875c-12.526,0.527-19.812-8.725-27.37-20.988c-1.543,0.133-3.081,0.275-4.626,0.398
			c6.183,15.16,19.107,31.645,35.894,27.277c17.027-4.43,36.013-20.139,41.337-37.33c0.156-0.506,0.247-0.916,0.293-1.26
			C125.982,101.617,108.926,113.252,94.1,113.875"/>
	</defs>
	<clipPath id="SVGID_18_">
		<use xlink:href="#SVGID_17_"  overflow="visible"/>
	</clipPath>
	
		<linearGradient id="SVGID_19_" gradientUnits="userSpaceOnUse" x1="-190.1924" y1="331.7637" x2="-189.1931" y2="331.7637" gradientTransform="matrix(120.6707 0 0 -120.6707 22972.4688 40137.5469)">
		<stop  offset="0" style="stop-color:#F08E21"/>
		<stop  offset="1" style="stop-color:#FFDC2A"/>
	</linearGradient>
	<rect x="62.104" y="81.973" clip-path="url(#SVGID_18_)" fill="url(#SVGID_19_)" width="77.523" height="42.957"/>
</g>
<g>
	<defs>
		<rect id="SVGID_20_" x="-93.636" y="-236.526" width="841.884" height="595.274"/>
	</defs>
	<clipPath id="SVGID_21_">
		<use xlink:href="#SVGID_20_"  overflow="visible"/>
	</clipPath>
	<path clip-path="url(#SVGID_21_)" fill="#FFFFFF" d="M67.02,92.832l-0.297,0.047l0.006,0.01l0.311-0.027
		C67.033,92.852,67.026,92.842,67.02,92.832"/>
	<g clip-path="url(#SVGID_21_)">
		<g>
			<defs>
				<rect id="SVGID_22_" x="67.04" y="92.412" width="15.6" height="12.953"/>
			</defs>
			<clipPath id="SVGID_23_">
				<use xlink:href="#SVGID_22_"  overflow="visible"/>
			</clipPath>
			<g clip-path="url(#SVGID_23_)">
				<defs>
					<path id="SVGID_24_" d="M67.04,92.861c3.211,5.072,6.859,9.355,10.866,12.506c1.601-1.051,3.183-2.127,4.733-3.246
						c-4.127-2.084-7.58-5.43-10.377-9.707C70.527,92.572,68.781,92.713,67.04,92.861"/>
				</defs>
				<clipPath id="SVGID_25_">
					<use xlink:href="#SVGID_24_"  overflow="visible"/>
				</clipPath>
				<defs>
					<filter id="Adobe_OpacityMaskFilter" filterUnits="userSpaceOnUse" x="63.021" y="87.576" width="23.635" height="22.629">
						<feColorMatrix  type="matrix" values="1 0 0 0 0  0 1 0 0 0  0 0 1 0 0  0 0 0 1 0"/>
					</filter>
				</defs>
				<mask maskUnits="userSpaceOnUse" x="63.021" y="87.576" width="23.635" height="22.629" id="SVGID_26_">
					<g filter="url(#Adobe_OpacityMaskFilter)">
						<g>
							<defs>
								
									<rect id="SVGID_27_" x="66.16" y="89.395" transform="matrix(-0.3284 -0.9445 0.9445 -0.3284 6.0114 202.0536)" width="17.357" height="18.989"/>
							</defs>
							<clipPath id="SVGID_28_" clip-path="url(#SVGID_25_)">
								<use xlink:href="#SVGID_27_"  overflow="visible"/>
							</clipPath>
							
								<linearGradient id="SVGID_29_" gradientUnits="userSpaceOnUse" x1="-188.0762" y1="336.2266" x2="-187.0762" y2="336.2266" gradientTransform="matrix(6.4288 18.4922 18.4922 -6.4288 -4937.4102 5727.4346)">
								<stop  offset="0" style="stop-color:#FFFFFF"/>
								<stop  offset="0.6354" style="stop-color:#000000"/>
								<stop  offset="1" style="stop-color:#000000"/>
							</linearGradient>
							<polygon clip-path="url(#SVGID_28_)" fill="url(#SVGID_29_)" points="84.108,80.244 93.676,107.764 65.571,117.535 
								56.002,90.016 							"/>
						</g>
					</g>
				</mask>
				
					<linearGradient id="SVGID_30_" gradientUnits="userSpaceOnUse" x1="-188.0762" y1="336.2266" x2="-187.0762" y2="336.2266" gradientTransform="matrix(6.4288 18.4922 18.4922 -6.4288 -4937.4102 5727.4346)">
					<stop  offset="0" style="stop-color:#98989C"/>
					<stop  offset="0.0793" style="stop-color:#9E9A96"/>
					<stop  offset="0.2119" style="stop-color:#AF9D88"/>
					<stop  offset="0.3815" style="stop-color:#C9A370"/>
					<stop  offset="0.5795" style="stop-color:#EBAC41"/>
					<stop  offset="0.6354" style="stop-color:#F6AF2D"/>
					<stop  offset="1" style="stop-color:#F6AF2D"/>
				</linearGradient>
				<polygon clip-path="url(#SVGID_25_)" mask="url(#SVGID_26_)" fill="url(#SVGID_30_)" points="80.957,87.576 86.657,103.971 
					68.721,110.205 63.022,93.811 				"/>
			</g>
		</g>
	</g>
	<g clip-path="url(#SVGID_21_)">
		<g>
			<defs>
				<rect id="SVGID_31_" x="62.104" y="92.887" width="14.428" height="16.531"/>
			</defs>
			<clipPath id="SVGID_32_">
				<use xlink:href="#SVGID_31_"  overflow="visible"/>
			</clipPath>
			<g clip-path="url(#SVGID_32_)">
				<defs>
					<path id="SVGID_33_" d="M62.104,93.285c2.27,5.566,5.451,11.307,9.398,16.133c1.684-1.043,3.363-2.096,5.029-3.166
						c-3.492-3.588-6.624-8.209-9.803-13.365C65.187,93.02,63.649,93.162,62.104,93.285"/>
				</defs>
				<clipPath id="SVGID_34_">
					<use xlink:href="#SVGID_33_"  overflow="visible"/>
				</clipPath>
				<defs>
					<filter id="Adobe_OpacityMaskFilter_1_" filterUnits="userSpaceOnUse" x="56.976" y="88.412" width="24.682" height="25.482">
						<feColorMatrix  type="matrix" values="1 0 0 0 0  0 1 0 0 0  0 0 1 0 0  0 0 0 1 0"/>
					</filter>
				</defs>
				<mask maskUnits="userSpaceOnUse" x="56.976" y="88.412" width="24.682" height="25.482" id="SVGID_35_">
					<g filter="url(#Adobe_OpacityMaskFilter_1_)">
						<g>
							<defs>
								
									<rect id="SVGID_36_" x="59.141" y="91.625" transform="matrix(-0.3284 -0.9445 0.9445 -0.3284 -3.4633 199.8421)" width="20.353" height="19.055"/>
							</defs>
							<clipPath id="SVGID_37_" clip-path="url(#SVGID_34_)">
								<use xlink:href="#SVGID_36_"  overflow="visible"/>
							</clipPath>
							
								<linearGradient id="SVGID_38_" gradientUnits="userSpaceOnUse" x1="-188.167" y1="336.0957" x2="-187.1667" y2="336.0957" gradientTransform="matrix(6.6336 19.0811 19.0811 -6.6336 -5099.458 5909.8633)">
								<stop  offset="0" style="stop-color:#FFFFFF"/>
								<stop  offset="0.6354" style="stop-color:#000000"/>
								<stop  offset="1" style="stop-color:#000000"/>
							</linearGradient>
							<polygon clip-path="url(#SVGID_37_)" fill="url(#SVGID_38_)" points="78.998,80.758 89.562,111.146 59.638,121.549 
								49.073,91.16 							"/>
						</g>
					</g>
				</mask>
				
					<linearGradient id="SVGID_39_" gradientUnits="userSpaceOnUse" x1="-188.1665" y1="336.0957" x2="-187.1665" y2="336.0957" gradientTransform="matrix(6.6336 19.0811 19.0811 -6.6336 -5099.458 5909.8633)">
					<stop  offset="0" style="stop-color:#98989C"/>
					<stop  offset="0.0793" style="stop-color:#9E9A96"/>
					<stop  offset="0.2119" style="stop-color:#AF9D88"/>
					<stop  offset="0.3815" style="stop-color:#C9A370"/>
					<stop  offset="0.5795" style="stop-color:#EBAC41"/>
					<stop  offset="0.6354" style="stop-color:#F6AF2D"/>
					<stop  offset="1" style="stop-color:#F6AF2D"/>
				</linearGradient>
				<polygon clip-path="url(#SVGID_34_)" mask="url(#SVGID_35_)" fill="url(#SVGID_39_)" points="74.976,88.412 81.659,107.637 
					63.66,113.895 56.977,94.67 				"/>
			</g>
		</g>
	</g>
	<path clip-path="url(#SVGID_21_)" fill="#FFFFFF" d="M67.02,92.832l-0.297,0.047l0.006,0.01l0.311-0.027
		C67.033,92.852,67.026,92.842,67.02,92.832"/>
	<g clip-path="url(#SVGID_21_)">
		<g>
			<defs>
				<rect id="SVGID_40_" x="56.633" y="49.246" width="20.078" height="23.475"/>
			</defs>
			<clipPath id="SVGID_41_">
				<use xlink:href="#SVGID_40_"  overflow="visible"/>
			</clipPath>
			<g clip-path="url(#SVGID_41_)">
				<defs>
					<path id="SVGID_42_" d="M61.531,55.139c-3.321,6.566-4.479,11.467-4.321,16.785c-0.193-0.02-0.385-0.037-0.576-0.055
						c1.019,0.121,7.121,0.684,8.959,0.852c0.379-6.078,5.826-13.424,11.119-18.096l-11.162-5.379
						C64.608,50.547,62.167,53.881,61.531,55.139"/>
				</defs>
				<clipPath id="SVGID_43_">
					<use xlink:href="#SVGID_42_"  overflow="visible"/>
				</clipPath>
				<defs>
					<filter id="Adobe_OpacityMaskFilter_2_" filterUnits="userSpaceOnUse" x="47.655" y="41.568" width="38.03" height="38.83">
						<feColorMatrix  type="matrix" values="1 0 0 0 0  0 1 0 0 0  0 0 1 0 0  0 0 0 1 0"/>
					</filter>
				</defs>
				<mask maskUnits="userSpaceOnUse" x="47.655" y="41.568" width="38.03" height="38.83" id="SVGID_44_">
					<g filter="url(#Adobe_OpacityMaskFilter_2_)">
						<g>
							<defs>
								
									<rect id="SVGID_45_" x="51.795" y="46.932" transform="matrix(-0.4217 0.9067 -0.9067 -0.4217 150.0839 26.2473)" width="29.753" height="28.105"/>
							</defs>
							<clipPath id="SVGID_46_" clip-path="url(#SVGID_43_)">
								<use xlink:href="#SVGID_45_"  overflow="visible"/>
							</clipPath>
							
								<linearGradient id="SVGID_47_" gradientUnits="userSpaceOnUse" x1="-190.2734" y1="327.6777" x2="-189.2734" y2="327.6777" gradientTransform="matrix(9.7504 -20.9641 -20.9641 -9.7504 8786.2627 -721.9033)">
								<stop  offset="0" style="stop-color:#FFFFFF"/>
								<stop  offset="0.5775" style="stop-color:#000000"/>
								<stop  offset="1" style="stop-color:#000000"/>
							</linearGradient>
							<polygon clip-path="url(#SVGID_46_)" fill="url(#SVGID_47_)" points="32.809,73.492 54.42,27.028 100.534,48.475 
								78.923,94.941 							"/>
						</g>
					</g>
				</mask>
				
					<linearGradient id="SVGID_48_" gradientUnits="userSpaceOnUse" x1="-190.2729" y1="327.6777" x2="-189.2729" y2="327.6777" gradientTransform="matrix(9.7504 -20.9641 -20.9641 -9.7504 8786.2617 -721.9023)">
					<stop  offset="0" style="stop-color:#98989C"/>
					<stop  offset="0.0721" style="stop-color:#9E9A96"/>
					<stop  offset="0.1926" style="stop-color:#AF9D88"/>
					<stop  offset="0.3467" style="stop-color:#C9A370"/>
					<stop  offset="0.5267" style="stop-color:#EBAC41"/>
					<stop  offset="0.5775" style="stop-color:#F6AF2D"/>
					<stop  offset="1" style="stop-color:#F6AF2D"/>
				</linearGradient>
				<polygon clip-path="url(#SVGID_43_)" mask="url(#SVGID_44_)" fill="url(#SVGID_48_)" points="47.657,68.547 60.204,41.568 
					85.687,53.422 73.14,80.398 				"/>
			</g>
		</g>
	</g>
	<path clip-path="url(#SVGID_21_)" fill="#FCEBD3" d="M130.879,57.129c4.167-15-8.266-24.406-30.826-20.375
		C83.151,39.777,67.11,54.168,65.661,72.066C71.327,45.316,128.546,28.295,130.879,57.129"/>
</g>
<g>
	<defs>
		<path id="SVGID_49_" d="M101.948,40.363c-16.273,3.52-34.88,13.834-36.338,31.859c5.004-20,31.306-28.674,44.527-28.705
			c8.595-0.021,20.893,3.371,20.664,14.096c3.42-13.672-9.935-18.018-21.068-18.02C106.887,39.594,104.188,39.879,101.948,40.363"/>
	</defs>
	<clipPath id="SVGID_50_">
		<use xlink:href="#SVGID_49_"  overflow="visible"/>
	</clipPath>
	
		<linearGradient id="SVGID_51_" gradientUnits="userSpaceOnUse" x1="-189.519" y1="331.5938" x2="-188.519" y2="331.5938" gradientTransform="matrix(65.7363 0 0 -65.7363 12523.8672 21853.6602)">
		<stop  offset="0" style="stop-color:#E83726"/>
		<stop  offset="1" style="stop-color:#FFD629"/>
	</linearGradient>
	<rect x="65.61" y="39.594" clip-path="url(#SVGID_50_)" fill="url(#SVGID_51_)" width="68.611" height="32.629"/>
</g>
<g>
	<defs>
		<path id="SVGID_52_" d="M106.012,21.182c-19.793,0.002-38.381,12.166-46.148,31.539c17.23-23.143,44.973-30.447,72.25-23.998
			c-8.384-5.168-17.357-7.541-26.096-7.541C106.016,21.182,106.014,21.182,106.012,21.182"/>
	</defs>
	<clipPath id="SVGID_53_">
		<use xlink:href="#SVGID_52_"  overflow="visible"/>
	</clipPath>
	
		<linearGradient id="SVGID_54_" gradientUnits="userSpaceOnUse" x1="-189.6523" y1="331.6309" x2="-188.6523" y2="331.6309" gradientTransform="matrix(72.25 0 0 -72.25 13762.25 23997.1875)">
		<stop  offset="0" style="stop-color:#EF8622"/>
		<stop  offset="0.0223" style="stop-color:#EF8622"/>
		<stop  offset="0.0468" style="stop-color:#EF8622"/>
		<stop  offset="1" style="stop-color:#F8BA20"/>
	</linearGradient>
	<rect x="59.864" y="21.182" clip-path="url(#SVGID_53_)" fill="url(#SVGID_54_)" width="72.25" height="31.539"/>
</g>
<g>
	<defs>
		<path id="SVGID_55_" d="M71.373,90.98c-3.374,0.342-6.668,0.666-9.796,0.986c-0.015,0.002-0.031,0.002-0.047,0.006
			c-14.922,1.539-24.618,2.463-39.541,4c13.255-0.787,26.73-1.613,40.115-2.688c3.394-0.273,6.781-0.562,10.16-0.871
			c3.518-0.322,7.027-0.656,10.517-1.023c5.168-0.547,10.399-1.178,15.511-2.045l-0.568-1.711
			C89.232,89.104,80.026,90.107,71.373,90.98"/>
	</defs>
	<clipPath id="SVGID_56_">
		<use xlink:href="#SVGID_55_"  overflow="visible"/>
	</clipPath>
	
		<linearGradient id="SVGID_57_" gradientUnits="userSpaceOnUse" x1="-190.9316" y1="331.9805" x2="-189.9229" y2="331.9805" gradientTransform="matrix(1362.6523 0 0 -1362.6523 259741.25 452466.1875)">
		<stop  offset="0" style="stop-color:#EF8622"/>
		<stop  offset="0.0223" style="stop-color:#EF8622"/>
		<stop  offset="0.0468" style="stop-color:#EF8622"/>
		<stop  offset="1" style="stop-color:#F8BA20"/>
	</linearGradient>
	<rect x="21.989" y="87.635" clip-path="url(#SVGID_56_)" fill="url(#SVGID_57_)" width="76.303" height="8.338"/>
</g>
<g>
	<defs>
		<path id="SVGID_58_" d="M78.447,29.682l1.707,5.133c9.313-5.196,19.75-7.91,30.585-8.279l-1.745-5.245
			c-0.997-0.062-1.993-0.091-2.987-0.091C96.118,21.199,86.533,24.225,78.447,29.682"/>
	</defs>
	<clipPath id="SVGID_59_">
		<use xlink:href="#SVGID_58_"  overflow="visible"/>
	</clipPath>
	<defs>
		<filter id="Adobe_OpacityMaskFilter_3_" filterUnits="userSpaceOnUse" x="73.337" y="9.499" width="42.51" height="37.015">
			<feColorMatrix  type="matrix" values="1 0 0 0 0  0 1 0 0 0  0 0 1 0 0  0 0 0 1 0"/>
		</filter>
	</defs>
	<mask maskUnits="userSpaceOnUse" x="73.337" y="9.499" width="42.51" height="37.015" id="SVGID_60_">
		<g filter="url(#Adobe_OpacityMaskFilter_3_)">
			<g>
				<defs>
					<polygon id="SVGID_61_" points="115.848,32.604 83.687,46.514 73.338,23.408 105.499,9.499 					"/>
				</defs>
				<clipPath id="SVGID_62_" clip-path="url(#SVGID_59_)">
					<use xlink:href="#SVGID_61_"  overflow="visible"/>
				</clipPath>
				
					<linearGradient id="SVGID_63_" gradientUnits="userSpaceOnUse" x1="-192.9756" y1="333.7256" x2="-191.9759" y2="333.7256" gradientTransform="matrix(-36.2032 15.6573 15.0533 33.6109 -11901.9902 -8173.1543)">
					<stop  offset="0" style="stop-color:#000000"/>
					<stop  offset="0.2087" style="stop-color:#000000"/>
					<stop  offset="0.5208" style="stop-color:#999999"/>
					<stop  offset="0.7738" style="stop-color:#000000"/>
					<stop  offset="1" style="stop-color:#000000"/>
				</linearGradient>
				<polygon clip-path="url(#SVGID_62_)" fill="url(#SVGID_63_)" points="129.736,40.508 80.236,61.916 59.45,15.504 108.95,-5.903 
									"/>
			</g>
		</g>
	</mask>
	
		<linearGradient id="SVGID_64_" gradientUnits="userSpaceOnUse" x1="-192.9756" y1="333.7256" x2="-191.9756" y2="333.7256" gradientTransform="matrix(-36.2032 15.6573 15.0533 33.6109 -11901.9902 -8173.1543)">
		<stop  offset="0" style="stop-color:#FFFFFF"/>
		<stop  offset="0.2087" style="stop-color:#FFFFFF"/>
		<stop  offset="0.5208" style="stop-color:#FFFFFF"/>
		<stop  offset="0.7738" style="stop-color:#FFFFFF"/>
		<stop  offset="1" style="stop-color:#FFFFFF"/>
	</linearGradient>
	<polygon clip-path="url(#SVGID_59_)" mask="url(#SVGID_60_)" fill="url(#SVGID_64_)" points="115.848,32.605 83.686,46.514 
		73.338,23.409 105.499,9.499 	"/>
</g>
<g>
	<defs>
		<path id="SVGID_65_" d="M80.766,36.654l4.271,13.58c7.025-3.584,15.663-6.18,22.571-6.641c3.555-0.238,6.3,0.146,8.955,0.494
			L111.1,27.626C100.086,27.842,89.467,31.528,80.766,36.654"/>
	</defs>
	<clipPath id="SVGID_66_">
		<use xlink:href="#SVGID_65_"  overflow="visible"/>
	</clipPath>
	<defs>
		<filter id="Adobe_OpacityMaskFilter_4_" filterUnits="userSpaceOnUse" x="72.281" y="14.657" width="52.763" height="48.548">
			<feColorMatrix  type="matrix" values="1 0 0 0 0  0 1 0 0 0  0 0 1 0 0  0 0 0 1 0"/>
		</filter>
	</defs>
	<mask maskUnits="userSpaceOnUse" x="72.281" y="14.657" width="52.763" height="48.548" id="SVGID_67_">
		<g filter="url(#Adobe_OpacityMaskFilter_4_)">
			<g>
				<defs>
					<polygon id="SVGID_68_" points="125.045,46.566 86.575,63.205 72.283,31.295 110.754,14.658 					"/>
				</defs>
				<clipPath id="SVGID_69_" clip-path="url(#SVGID_66_)">
					<use xlink:href="#SVGID_68_"  overflow="visible"/>
				</clipPath>
				
					<linearGradient id="SVGID_70_" gradientUnits="userSpaceOnUse" x1="-192.9575" y1="333.6719" x2="-191.9578" y2="333.6719" gradientTransform="matrix(-36.5361 15.8012 15.1917 33.92 -12006.1953 -8236.3555)">
					<stop  offset="0" style="stop-color:#000000"/>
					<stop  offset="0.2087" style="stop-color:#000000"/>
					<stop  offset="0.5208" style="stop-color:#999999"/>
					<stop  offset="0.7738" style="stop-color:#000000"/>
					<stop  offset="1" style="stop-color:#000000"/>
				</linearGradient>
				<polygon clip-path="url(#SVGID_69_)" fill="url(#SVGID_70_)" points="143.26,55.328 80.844,82.322 54.068,22.536 
					116.485,-4.458 				"/>
			</g>
		</g>
	</mask>
	
		<linearGradient id="SVGID_71_" gradientUnits="userSpaceOnUse" x1="-192.9575" y1="333.6719" x2="-191.958" y2="333.6719" gradientTransform="matrix(-36.5361 15.8012 15.1917 33.92 -12006.1953 -8236.3555)">
		<stop  offset="0" style="stop-color:#FFFFFF"/>
		<stop  offset="0.2087" style="stop-color:#FFFFFF"/>
		<stop  offset="0.5208" style="stop-color:#FFFFFF"/>
		<stop  offset="0.7738" style="stop-color:#FFFFFF"/>
		<stop  offset="1" style="stop-color:#FFFFFF"/>
	</linearGradient>
	<polygon clip-path="url(#SVGID_66_)" mask="url(#SVGID_67_)" fill="url(#SVGID_71_)" points="125.045,46.566 86.575,63.205 
		72.283,31.295 110.754,14.657 	"/>
</g>
<g>
	<defs>
		<path id="SVGID_72_" d="M122.854,68.564c-8.649,4.783-18.885,6.352-29.333,6.438l3.993,12.006c3.621-0.475,7.179-0.979,10.6-1.535
			c-3.266,0.824-6.764,1.535-10.391,2.162l0.568,1.711c11.127-1.889,21.688-4.912,29.782-10.691l-3.688-11.092
			C123.883,67.941,123.37,68.279,122.854,68.564"/>
	</defs>
	<clipPath id="SVGID_73_">
		<use xlink:href="#SVGID_72_"  overflow="visible"/>
	</clipPath>
	<defs>
		<filter id="Adobe_OpacityMaskFilter_5_" filterUnits="userSpaceOnUse" x="85.347" y="55.043" width="50.898" height="46.822">
			<feColorMatrix  type="matrix" values="1 0 0 0 0  0 1 0 0 0  0 0 1 0 0  0 0 0 1 0"/>
		</filter>
	</defs>
	<mask maskUnits="userSpaceOnUse" x="85.347" y="55.043" width="50.898" height="46.822" id="SVGID_74_">
		<g filter="url(#Adobe_OpacityMaskFilter_5_)">
			<g>
				<defs>
					<polygon id="SVGID_75_" points="136.247,85.811 99.127,101.865 85.348,71.098 122.467,55.045 					"/>
				</defs>
				<clipPath id="SVGID_76_" clip-path="url(#SVGID_73_)">
					<use xlink:href="#SVGID_75_"  overflow="visible"/>
				</clipPath>
				
					<linearGradient id="SVGID_77_" gradientUnits="userSpaceOnUse" x1="-192.9761" y1="333.7422" x2="-191.9761" y2="333.7422" gradientTransform="matrix(-36.2035 15.6574 15.0534 33.6112 -11880.7754 -8125.6484)">
					<stop  offset="0" style="stop-color:#000000"/>
					<stop  offset="0.2087" style="stop-color:#000000"/>
					<stop  offset="0.5208" style="stop-color:#999999"/>
					<stop  offset="0.7738" style="stop-color:#000000"/>
					<stop  offset="1" style="stop-color:#000000"/>
				</linearGradient>
				<polygon clip-path="url(#SVGID_76_)" fill="url(#SVGID_77_)" points="153.813,94.268 93.607,120.305 67.782,62.643 
					127.988,36.604 				"/>
			</g>
		</g>
	</mask>
	
		<linearGradient id="SVGID_78_" gradientUnits="userSpaceOnUse" x1="-192.9761" y1="333.7432" x2="-191.9761" y2="333.7432" gradientTransform="matrix(-36.2034 15.6574 15.0534 33.6111 -11880.7744 -8125.6543)">
		<stop  offset="0" style="stop-color:#FFFFFF"/>
		<stop  offset="0.2087" style="stop-color:#FFFFFF"/>
		<stop  offset="0.5208" style="stop-color:#FFFFFF"/>
		<stop  offset="0.7738" style="stop-color:#FFFFFF"/>
		<stop  offset="1" style="stop-color:#FFFFFF"/>
	</linearGradient>
	<polygon clip-path="url(#SVGID_73_)" mask="url(#SVGID_74_)" fill="url(#SVGID_78_)" points="136.247,85.812 99.127,101.865 
		85.348,71.098 122.467,55.043 	"/>
</g>
<path fill="#98989C" d="M200.25,96.7h-25.858V75.354h19.089c1.477,0,2.691-1.215,2.691-2.689c0-1.477-1.215-2.691-2.691-2.691
	h-19.089v-20.91h24.903c1.475,0,2.689-1.217,2.689-2.689c0-1.475-1.215-2.689-2.689-2.689h-27.854c-1.648,0-2.95,1.299-2.95,2.949
	V99.13c0,1.648,1.302,2.951,2.95,2.951h28.809c1.476,0,2.689-1.215,2.689-2.691C202.939,97.917,201.726,96.7,200.25,96.7"/>
<path fill="#98989C" d="M236.023,96.868h-23.77V46.282c0-1.648-1.303-2.951-2.95-2.951c-1.649,0-2.95,1.303-2.95,2.951v53.189
	c0,1.65,1.301,2.953,2.95,2.953h26.72c1.562,0,2.776-1.217,2.776-2.779C238.8,98.085,237.585,96.868,236.023,96.868"/>
<path fill="#98989C" d="M307.547,42.812c-16.834,0-24.556,9.891-24.556,30.455c0,20.391,7.722,30.371,24.556,30.371
	c16.832,0,24.553-9.98,24.553-30.371C332.1,52.702,324.379,42.812,307.547,42.812 M307.547,98.257
	c-13.276,0-18.481-8.068-18.481-24.99c0-17.006,5.205-25.076,18.481-25.076c13.273,0,18.479,8.07,18.479,25.076
	C326.025,90.188,320.82,98.257,307.547,98.257"/>
<path fill="#98989C" d="M376.441,43.331c-1.564,0-2.867,1.303-2.867,2.863v44.512l-30.717-46.16
	c-0.434-0.605-1.301-1.215-2.34-1.215c-1.562,0-2.867,1.303-2.867,2.863v54.061c0,1.561,1.305,2.863,2.867,2.863
	c1.559,0,2.86-1.303,2.86-2.863V55.827l30.544,46.074c0.607,0.781,1.389,1.217,2.43,1.217c1.65,0,2.949-1.303,2.949-2.951V46.194
	C379.301,44.634,378.002,43.331,376.441,43.331"/>
<path fill="#98989C" d="M279.377,98.343l-15.879-21.17c9.371-0.436,15.531-7.637,15.531-16.574c0-9.283-6.941-16.572-16.572-16.572
	h-34.199c-0.062,0-0.123,0.004-0.184,0.008h-0.08c-1.501,0-2.686,1.186-2.686,2.686c0,0.049,0.004,0.094,0.007,0.137
	c-0.002,0.041-0.007,0.08-0.007,0.121l0.013,0.006c0.129,1.375,1.261,2.424,2.673,2.424h1.53l0.016,0.01h1.668v-0.01h6.677
	c0.006,0,0.01-0.002,0.015-0.002h24.469c6.248,0,10.674,4.773,10.674,11.193c0,6.248-4.34,11.193-10.414,11.193H248.14l-2.963-0.002
	l-0.003,0.002c-1.641,0.01-2.935,1.305-2.935,2.951v0.688l-0.001,0.002v24.734c0,1.648,1.303,2.951,2.95,2.951
	c1.649,0,2.951-1.303,2.951-2.951V83.003h0.001v-5.83h8.763l17.614,24.557c0.693,1.039,1.648,1.389,2.516,1.389
	c1.649,0,2.95-1.303,2.95-2.951C279.983,99.56,279.812,98.864,279.377,98.343"/>
</svg>
